<svg xmlns="http://www.w3.org/2000/svg" xmlns:xlink="http://www.w3.org/1999/xlink" version="1.1" x="0px" y="0px" viewBox="0 0 512 640" enable-background="new 0 0 512 512" xml:space="preserve"><g><path d="M117.33,85.339c5.891,0,10.672-4.781,10.672-10.672s-4.781-10.664-10.672-10.664s-10.655,4.773-10.655,10.664   S111.439,85.339,117.33,85.339z"/><path d="M53.332,63.949c5.891,0,10.671-4.773,10.671-10.664s-4.78-10.672-10.671-10.672s-10.656,4.781-10.656,10.672   S47.441,63.949,53.332,63.949z"/><path d="M117.33,21.34c5.891,0,10.672-4.781,10.672-10.672c0-5.89-4.781-10.664-10.672-10.664s-10.655,4.773-10.655,10.664   C106.675,16.559,111.439,21.34,117.33,21.34z"/><path d="M415.997,341.218c-5.891,0-10.672,4.781-10.672,10.672s4.781,10.664,10.672,10.664s10.672-4.773,10.672-10.664   S421.888,341.218,415.997,341.218z"/><path d="M245.328,405.278c-5.891,0-10.656,4.773-10.656,10.664s4.766,10.664,10.656,10.664S256,421.833,256,415.942   S251.219,405.278,245.328,405.278z"/><path d="M160.002,383.998c-5.891,0-10.672,4.773-10.672,10.664c0,5.89,4.781,10.671,10.672,10.671   c5.89,0,10.671-4.781,10.671-10.671C170.673,388.771,165.892,383.998,160.002,383.998z"/><path d="M32.004,298.663c-5.891,0-10.672,4.781-10.672,10.672s4.781,10.664,10.672,10.664s10.672-4.773,10.672-10.664   S37.895,298.663,32.004,298.663z"/><path d="M287.999,42.613c5.891,0,10.672-4.773,10.672-10.664c0-5.891-4.781-10.664-10.672-10.664s-10.672,4.773-10.672,10.664   C277.327,37.84,282.108,42.613,287.999,42.613z"/><path d="M330.67,106.667c5.891,0,10.656-4.773,10.656-10.664c0-5.89-4.766-10.664-10.656-10.664s-10.672,4.773-10.672,10.664   C319.998,101.894,324.779,106.667,330.67,106.667z"/><path d="M415.997,170.666c-5.891,0-10.672,4.781-10.672,10.671s4.781,10.664,10.672,10.664s10.672-4.773,10.672-10.664   S421.888,170.666,415.997,170.666z"/><path d="M458.668,128.002c5.891,0,10.656-4.773,10.656-10.664c0-5.891-4.766-10.672-10.656-10.672s-10.672,4.781-10.672,10.672   C447.996,123.229,452.777,128.002,458.668,128.002z"/><path d="M74.675,213.165c-5.891,0-10.672,4.781-10.672,10.672c0,5.89,4.781,10.664,10.672,10.664s10.656-4.773,10.656-10.664   C85.331,217.946,80.565,213.165,74.675,213.165z"/><path d="M337.357,263.039l72.062-33.624l-71.843-34.085l33.578-72.077l-76.937,20.078l-20.608-76.812l-46.047,64.843   l-65.139-45.593l6.405,79.264l-79.217,6.953l55.858,56.601l-56.218,56.249l62.218,5.851c-1.859,2.164-3.703,4.344-5.531,6.562   c-22.438,27.211-42.78,58.562-60.483,93.187C55.379,449.317,43.473,496.777,42.988,498.77v0.008   c-0.203,0.82-0.312,1.672-0.312,2.555c0,5.891,4.766,10.663,10.656,10.663c5.016,0,9.202-3.461,10.343-8.108h0.016   c0.109-0.461,11.797-47.038,40.766-103.741c14.562-28.491,35.233-62.709,62.857-95.006l-5.796,66.366l65.436-45.187l45.641,65.132   l21.077-76.679l76.827,20.562L337.357,263.039z M299.187,294.163l-20.453-5.477l-5.624,20.43l-9.062,32.961l-19.609-28   l-12.156-17.352l-17.437,12.039l-28.141,19.422l2.969-34.047l1.25-14.304c10.891-10.641,22.641-20.805,35.28-30.179   c5.344,3.984,11.953,6.344,19.125,6.344c17.672,0,31.999-14.328,31.999-32c0-17.672-14.327-32-31.999-32s-31.999,14.328-31.999,32   c0,2.719,0.344,5.359,0.984,7.882c-15.578,11.461-30.547,24.516-44.797,39.078l-33.124-3.117l24.172-24.179l14.968-14.984   l-14.874-15.078l-24.016-24.328l34.046-2.992l21.109-1.852l-1.703-21.117l-2.766-34.07l28.016,19.601l17.358,12.141l12.266-17.273   l19.781-27.867l8.859,33.007l5.483,20.469l20.5-5.352l33.077-8.633l-14.437,30.984l-8.938,19.203l19.14,9.086l30.875,14.648   l-30.969,14.453l-19.202,8.961l8.828,19.257l14.249,31.069L299.187,294.163z M234.672,224.001c0-5.883,4.781-10.664,10.656-10.664   c5.891,0,10.672,4.781,10.672,10.664c0,5.882-4.781,10.664-10.672,10.664C239.453,234.665,234.672,229.883,234.672,224.001z"/><path d="M32.004,149.346h10.672v10.672c0,5.891,4.766,10.664,10.656,10.664s10.671-4.773,10.671-10.664v-10.672h10.672   c5.891,0,10.656-4.773,10.656-10.664s-4.766-10.664-10.656-10.664H64.003v-10.554c0-5.891-4.78-10.672-10.671-10.672   s-10.656,4.781-10.656,10.672v10.554H32.004c-5.891,0-10.672,4.773-10.672,10.664S26.113,149.346,32.004,149.346z"/><path d="M373.326,405.216H362.67v-10.554c0-5.891-4.781-10.664-10.672-10.664s-10.672,4.773-10.672,10.664v10.554H330.67   c-5.891,0-10.672,4.781-10.672,10.672s4.781,10.664,10.672,10.664h10.656v10.664c0,5.898,4.781,10.672,10.672,10.672   s10.672-4.773,10.672-10.672v-10.664h10.656c5.891,0,10.672-4.773,10.672-10.664S379.217,405.216,373.326,405.216z"/><path d="M479.996,256h-10.672v-10.555c0-5.891-4.766-10.672-10.656-10.672s-10.672,4.781-10.672,10.672V256h-10.672   c-5.891,0-10.655,4.773-10.655,10.664s4.765,10.672,10.655,10.672h10.672v10.663c0,5.891,4.781,10.664,10.672,10.664   s10.656-4.773,10.656-10.664v-10.663h10.672c5.891,0,10.672-4.781,10.672-10.672S485.887,256,479.996,256z"/><path d="M394.669,63.894h10.656v10.664c0,5.891,4.781,10.664,10.672,10.664s10.672-4.773,10.672-10.664V63.894h10.655   c5.891,0,10.672-4.773,10.672-10.671c0-5.891-4.781-10.664-10.672-10.664h-10.655V32.004c0-5.891-4.781-10.664-10.672-10.664   s-10.672,4.773-10.672,10.664v10.554h-10.656c-5.891,0-10.671,4.773-10.671,10.664C383.998,59.121,388.778,63.894,394.669,63.894z"/><path d="M181.329,42.559h10.672v10.664c0,5.898,4.781,10.671,10.672,10.671s10.656-4.773,10.656-10.671V42.559H224   c5.891,0,10.672-4.773,10.672-10.664c0-5.891-4.781-10.672-10.672-10.672h-10.671V10.668c0-5.89-4.766-10.664-10.656-10.664   s-10.672,4.773-10.672,10.664v10.555h-10.672c-5.891,0-10.656,4.781-10.656,10.672C170.673,37.785,175.438,42.559,181.329,42.559z"/></g><text x="0" y="527" fill="#000000" font-size="5px" font-weight="bold" font-family="'Helvetica Neue', Helvetica, Arial-Unicode, Arial, Sans-serif">Created by lastspark</text><text x="0" y="532" fill="#000000" font-size="5px" font-weight="bold" font-family="'Helvetica Neue', Helvetica, Arial-Unicode, Arial, Sans-serif">from the Noun Project</text></svg>
