<svg xmlns="http://www.w3.org/2000/svg" viewBox="0 0 559.463 559.463" width="512" height="512"><g fill="#FFF"><path d="M378.589 202.635c-16.593 0-30.034 13.45-30.034 30.043s13.441 30.052 30.034 30.052c16.593 0 30.043-13.459 30.043-30.052s-13.45-30.043-30.043-30.043z"/><path d="M382.163 163.406c-40.153 0-72.828 32.683-72.828 72.854 0 40.162 32.674 72.845 72.828 72.845 40.162 0 72.836-32.683 72.836-72.845 0-40.171-32.674-72.854-72.836-72.854zm0 118.755c-25.302 0-45.891-20.589-45.891-45.9s20.589-45.909 45.891-45.909c25.32 0 45.9 20.597 45.9 45.909-.001 25.311-20.589 45.9-45.9 45.9zM257.617 236.261c0-40.171-32.665-72.854-72.828-72.854s-72.828 32.683-72.828 72.854c0 40.162 32.665 72.845 72.828 72.845 40.154 0 72.828-32.683 72.828-72.845zm-72.828 45.9c-25.302 0-45.891-20.589-45.891-45.9s20.589-45.909 45.891-45.909c25.293 0 45.891 20.597 45.891 45.909 0 25.311-20.588 45.9-45.891 45.9z"/><path d="M181.207 202.635c-16.584 0-30.034 13.45-30.034 30.043s13.45 30.052 30.034 30.052c16.593 0 30.043-13.459 30.043-30.052s-13.459-30.043-30.043-30.043zM343.975 419.69l-32.98-22.437 32.971-22.431c6.151-4.184 7.749-12.57 3.565-18.721-4.184-6.151-12.552-7.731-18.712-3.556l-41.77 28.416-41.77-28.416c-6.151-4.184-14.528-2.604-18.712 3.556-4.184 6.15-2.586 14.537 3.565 18.721l32.971 22.431-32.98 22.437c-6.151 4.184-7.749 12.57-3.565 18.721 2.604 3.834 6.842 5.89 11.143 5.89 2.613 0 5.244-.754 7.569-2.334l41.779-28.423 41.779 28.423a13.41 13.41 0 0 0 7.569 2.334c4.301 0 8.539-2.056 11.143-5.89 4.184-6.151 2.586-14.537-3.565-18.721z"/><path d="M279.732 0C125.529 0 .076 125.488.067 279.727c0 154.248 125.453 279.736 279.664 279.736 154.203 0 279.664-125.488 279.664-279.736C559.396 125.488 433.935 0 279.732 0zm.009 532.518c-139.352 0-252.728-113.403-252.728-252.791s113.376-252.79 252.719-252.79c139.361 0 252.737 113.403 252.737 252.791s-113.367 252.79-252.728 252.79z"/></g></svg>